<svg xmlns="http://www.w3.org/2000/svg" version="1.0" width="512.000000" height="512.000000" preserveAspectRatio="xMidYMid meet" style=""><rect id="backgroundrect" width="100%" height="100%" x="0" y="0" fill="none" stroke="none"/>


<g class="currentLayer" style=""><title>Layer 1</title><g transform="translate(0,512) scale(0.10000000149011612,-0.10000000149011612) " fill="#6d6d6d" stroke="none" id="svg_1" class="selected" fill-opacity="1">
<path d="M2120 5044 c-228 -40 -425 -76 -437 -79 -46 -11 -53 -48 -53 -270 l0 -205 -70 0 -70 0 0 109 c0 130 -12 155 -75 155 -63 0 -75 -25 -75 -155 l0 -109 -278 0 c-271 0 -279 -1 -298 -21 -17 -19 -19 -41 -22 -225 l-3 -204 -173 0 c-160 0 -174 -2 -194 -20 l-22 -21 0 -609 c0 -597 0 -610 20 -630 25 -25 71 -26 101 -1 l24 19 3 556 2 556 120 0 119 0 3 -154 c3 -135 5 -157 22 -175 25 -27 79 -28 106 -1 19 19 20 33 20 400 l0 380 370 0 370 0 2 -781 3 -781 24 -19 c28 -22 69 -25 97 -5 17 13 19 31 24 193 l5 178 256 5 c196 4 260 8 272 19 25 20 22 83 -4 107 -19 17 -42 19 -275 22 l-254 3 0 94 0 95 255 0 c242 0 256 1 275 20 30 30 27 83 -6 109 -25 20 -39 21 -275 21 l-249 0 0 95 0 95 246 0 c288 0 304 4 304 78 0 19 -8 40 -20 52 -19 19 -33 20 -275 20 l-255 0 0 95 0 95 249 0 c236 0 250 1 275 21 30 23 35 72 12 105 -13 18 -32 19 -273 24 l-258 5 -3 92 -3 92 255 3 c233 3 256 5 275 22 27 24 29 86 3 109 -16 14 -53 17 -273 19 l-254 3 -3 92 c-3 89 -2 93 20 98 42 9 652 115 665 115 9 0 13 -104 15 -460 3 -458 3 -460 25 -481 29 -29 77 -29 106 0 20 20 22 33 25 176 l4 155 369 0 369 0 0 -780 c0 -767 0 -780 20 -800 25 -25 71 -26 101 -1 23 18 24 26 27 165 l3 146 253 0 c278 0 276 0 291 62 6 22 1 33 -23 58 l-30 30 -246 0 -246 0 0 95 0 95 246 0 c154 0 253 4 265 11 48 25 44 105 -7 128 -16 7 -108 11 -264 11 l-240 0 0 95 0 95 244 0 c134 0 252 3 261 6 24 10 46 60 39 89 -13 52 -28 55 -296 55 l-248 0 0 130 c0 72 2 130 4 130 2 0 156 36 342 80 187 44 342 80 347 80 4 0 7 -179 7 -398 l0 -399 23 -21 c29 -27 67 -28 98 -3 23 19 24 24 27 205 l3 186 119 0 120 0 2 -556 3 -556 24 -19 c30 -25 76 -24 101 1 20 20 20 33 20 630 l0 609 -22 21 c-20 19 -34 20 -195 20 l-173 0 0 193 c0 134 -4 199 -13 217 -26 52 -38 51 -450 -46 l-382 -90 -6 68 c-8 103 -15 107 -168 110 l-126 3 -5 110 c-3 61 -9 116 -13 123 -15 23 -58 34 -88 22 -39 -17 -49 -49 -49 -160 l0 -100 -220 0 -220 0 0 268 c0 147 -4 282 -10 301 -11 40 -36 61 -70 60 -14 -1 -212 -34 -440 -75z" id="svg_2" fill="#6d6d6d" fill-opacity="1"/>
<path d="M1061 4154 c-31 -39 -31 -179 0 -218 27 -34 77 -36 107 -3 19 20 22 35 22 109 0 103 -19 138 -75 138 -24 0 -39 -7 -54 -26z" id="svg_3" fill="#6d6d6d" fill-opacity="1"/>
<path d="M1361 4154 c-17 -22 -21 -41 -21 -109 0 -68 4 -87 21 -109 27 -34 77 -36 107 -3 19 20 22 35 22 109 0 103 -19 138 -75 138 -24 0 -39 -7 -54 -26z" id="svg_4" fill="#6d6d6d" fill-opacity="1"/>
<path d="M2805 4155 c-23 -22 -25 -32 -25 -108 0 -102 19 -137 76 -137 60 0 74 25 74 133 0 85 -2 96 -23 115 -31 29 -72 28 -102 -3z" id="svg_5" fill="#6d6d6d" fill-opacity="1"/>
<path d="M3105 4155 c-23 -22 -25 -32 -25 -108 0 -102 19 -137 76 -137 60 0 74 25 74 133 0 85 -2 96 -23 115 -31 29 -72 28 -102 -3z" id="svg_6" fill="#6d6d6d" fill-opacity="1"/>
<path d="M2513 3766 l-28 -24 0 -482 0 -482 24 -19 c30 -24 76 -24 100 0 11 11 22 39 26 63 3 24 5 240 3 481 l-3 439 -28 24 c-35 30 -59 30 -94 0z" id="svg_7" fill="#6d6d6d" fill-opacity="1"/>
<path d="M1061 3674 c-31 -39 -31 -179 0 -218 27 -34 77 -36 107 -3 19 20 22 35 22 109 0 103 -19 138 -75 138 -24 0 -39 -7 -54 -26z" id="svg_8" fill="#6d6d6d" fill-opacity="1"/>
<path d="M1361 3674 c-17 -22 -21 -41 -21 -109 0 -68 4 -87 21 -109 27 -34 77 -36 107 -3 19 20 22 35 22 109 0 103 -19 138 -75 138 -24 0 -39 -7 -54 -26z" id="svg_9" fill="#6d6d6d" fill-opacity="1"/>
<path d="M2805 3675 c-23 -22 -25 -32 -25 -108 0 -102 19 -137 76 -137 60 0 74 25 74 133 0 85 -2 96 -23 115 -31 29 -72 28 -102 -3z" id="svg_10" fill="#6d6d6d" fill-opacity="1"/>
<path d="M3105 3675 c-23 -22 -25 -32 -25 -108 0 -102 19 -137 76 -137 60 0 74 25 74 133 0 85 -2 96 -23 115 -31 29 -72 28 -102 -3z" id="svg_11" fill="#6d6d6d" fill-opacity="1"/>
<path d="M784 3328 c-39 -19 -44 -48 -44 -288 0 -243 4 -270 47 -289 34 -16 47 -14 77 10 l26 20 0 259 0 259 -26 20 c-29 23 -48 25 -80 9z" id="svg_12" fill="#6d6d6d" fill-opacity="1"/>
<path d="M4250 3260 c-19 -19 -20 -33 -20 -250 0 -217 1 -231 20 -250 27 -27 81 -26 106 1 18 19 19 39 19 249 0 210 -1 230 -19 249 -25 27 -79 28 -106 1z" id="svg_13" fill="#6d6d6d" fill-opacity="1"/>
<path d="M1083 3220 c-39 -16 -43 -41 -43 -240 0 -189 0 -191 25 -215 13 -14 36 -25 50 -25 14 0 37 11 50 25 25 24 25 26 25 209 0 197 -6 226 -47 245 -28 13 -30 13 -60 1z" id="svg_14" fill="#6d6d6d" fill-opacity="1"/>
<path d="M1383 3220 c-39 -16 -43 -41 -43 -240 0 -189 0 -191 25 -215 13 -14 36 -25 50 -25 14 0 37 11 50 25 25 24 25 26 25 209 0 197 -6 226 -47 245 -28 13 -30 13 -60 1z" id="svg_15" fill="#6d6d6d" fill-opacity="1"/>
<path d="M2823 3218 c-39 -19 -44 -53 -41 -253 3 -183 4 -187 27 -206 30 -25 62 -24 95 2 l26 20 0 199 c0 174 -2 200 -17 218 -22 26 -61 35 -90 20z" id="svg_16" fill="#6d6d6d" fill-opacity="1"/>
<path d="M3123 3218 c-39 -19 -44 -53 -41 -253 3 -183 4 -187 27 -206 30 -25 62 -24 95 2 l26 20 0 199 c0 174 -2 200 -17 218 -22 26 -61 35 -90 20z" id="svg_17" fill="#6d6d6d" fill-opacity="1"/>
<path d="M45 2578 c-49 -26 -58 -69 -25 -111 19 -24 28 -26 108 -29 l87 -3 7 -100 c57 -820 558 -1560 1302 -1925 223 -110 406 -169 651 -211 154 -26 459 -36 616 -20 527 54 1013 281 1387 645 79 77 92 94 92 123 0 42 -30 73 -71 73 -26 0 -47 -15 -113 -78 -44 -43 -109 -101 -143 -129 -58 -48 -64 -51 -110 -46 -62 6 -147 30 -195 54 -60 31 -106 77 -193 194 -100 134 -176 206 -253 237 -51 20 -72 23 -197 22 -162 -1 -230 -16 -408 -90 -62 -25 -150 -60 -197 -77 -145 -53 -263 -39 -337 41 -40 43 -87 145 -153 337 -110 317 -163 423 -262 530 -178 192 -489 210 -579 33 -12 -24 -26 -84 -35 -151 -7 -62 -21 -131 -30 -154 -34 -92 -136 -146 -311 -166 -89 -9 -106 -9 -113 3 -33 54 -127 327 -145 422 l-7 34 78 30 c152 57 292 172 372 304 l39 65 580 3 580 2 1 -109 c2 -176 47 -344 112 -422 65 -80 227 -136 420 -146 469 -24 585 231 277 609 -26 32 -47 60 -47 63 0 3 431 4 958 3 l957 -3 -1 -30 c-1 -16 -4 -73 -8 -125 -7 -88 -6 -97 14 -117 14 -15 32 -23 55 -23 51 0 72 33 80 128 3 42 8 98 11 125 l6 47 88 0 c84 0 90 1 109 26 34 43 26 86 -20 109 -24 13 -352 15 -2521 15 -1785 -1 -2499 -4 -2513 -12z m685 -149 c0 -6 -33 -44 -72 -84 -68 -67 -168 -128 -244 -150 -29 -8 -33 7 -41 137 l-6 108 181 0 c127 0 182 -3 182 -11z m1971 -88 c132 -139 213 -285 195 -355 -23 -92 -372 -102 -554 -15 -47 23 -70 58 -96 149 -20 70 -37 234 -29 283 l6 37 192 0 193 0 93 -99z m-1265 -356 c118 -58 198 -190 309 -515 136 -398 218 -503 421 -541 109 -20 195 0 474 115 155 63 254 86 372 86 139 0 189 -34 322 -216 106 -146 190 -214 336 -271 23 -9 19 -13 -62 -57 -534 -291 -1157 -346 -1740 -156 -481 158 -900 488 -1178 928 -39 63 -36 66 51 76 81 8 201 50 264 91 98 65 145 159 165 329 19 161 26 169 138 162 52 -3 90 -12 128 -31z" id="svg_18" fill="#6d6d6d" fill-opacity="1"/>
<path d="M4330 2079 c-80 -15 -183 -74 -240 -135 -28 -31 -60 -74 -70 -94 l-19 -38 -43 10 c-95 22 -204 -10 -282 -82 -69 -64 -100 -136 -100 -235 0 -99 31 -171 100 -235 87 -80 106 -85 381 -88 l242 -4 26 26 c32 32 32 70 0 101 -24 25 -24 25 -242 25 -191 0 -223 3 -259 19 -133 60 -136 242 -4 309 57 28 95 28 156 -3 87 -44 128 -28 151 58 28 105 124 195 229 217 183 38 364 -106 364 -290 0 -63 6 -78 41 -96 22 -11 38 -12 64 -5 51 14 102 -3 125 -42 24 -39 25 -68 5 -107 -27 -52 -58 -60 -220 -60 -132 0 -147 -2 -165 -20 -30 -30 -27 -83 6 -109 24 -19 40 -21 169 -21 168 0 227 14 286 67 105 95 117 248 28 356 -34 41 -114 87 -152 87 -30 0 -42 14 -52 60 -4 19 -20 60 -35 91 -90 177 -293 276 -490 238z" id="svg_19" fill="#6d6d6d" fill-opacity="1"/>
<path d="M225 445 c-14 -13 -25 -36 -25 -50 0 -14 11 -37 25 -50 l24 -25 341 0 341 0 24 25 c32 31 32 69 0 100 l-24 25 -341 0 -341 0 -24 -25z" id="svg_20" fill="#6d6d6d" fill-opacity="1"/>
<path d="M4065 445 c-14 -13 -25 -36 -25 -50 0 -14 11 -37 25 -50 l24 -25 491 0 491 0 24 25 c14 13 25 36 25 50 0 14 -11 37 -25 50 l-24 25 -491 0 -491 0 -24 -25z" id="svg_21" fill="#6d6d6d" fill-opacity="1"/>
<path d="M25 125 c-14 -13 -25 -36 -25 -50 0 -14 11 -37 25 -50 24 -25 26 -25 215 -25 189 0 191 0 215 25 32 31 32 69 0 100 -24 25 -26 25 -215 25 -189 0 -191 0 -215 -25z" id="svg_22" fill="#6d6d6d" fill-opacity="1"/>
<path d="M705 125 c-14 -13 -25 -36 -25 -50 0 -14 11 -37 25 -50 l24 -25 366 0 366 0 24 25 c14 13 25 36 25 50 0 14 -11 37 -25 50 l-24 25 -366 0 -366 0 -24 -25z" id="svg_23" fill="#6d6d6d" fill-opacity="1"/>
<path d="M3476 129 c-36 -28 -36 -80 0 -108 26 -20 38 -21 363 -21 260 1 340 4 353 14 39 30 40 92 0 122 -13 10 -92 13 -353 14 -325 0 -337 -1 -363 -21z" id="svg_24" fill="#6d6d6d" fill-opacity="1"/>
</g></g></svg>